<svg width="12" height="9" viewBox="0 0 12 9" fill="none" xmlns="http://www.w3.org/2000/svg">
    <path d="M0.5 4.5C0.5 4.5 3.5 8.5 4 8.5C4.5 8.5 11 0.5 11 0.5" stroke="#0C8FE4"/>
    <path d="M1 4.5C1 4.77614 0.776142 5 0.5 5C0.223858 5 0 4.77614 0 4.5C0 4.22386 0.223858 4 0.5 4C0.776142 4 1 4.22386 1 4.5Z"
          fill="#0C8FE4"/>
    <path d="M11.5 0.5C11.5 0.776142 11.2761 1 11 1C10.7239 1 10.5 0.776142 10.5 0.5C10.5 0.223858 10.7239 0 11 0C11.2761 0 11.5 0.223858 11.5 0.5Z"
          fill="#0C8FE4"/>
</svg>
