<svg width="16" height="9" viewBox="0 0 16 9" fill="none" xmlns="http://www.w3.org/2000/svg">
    <path d="M0.5 4.5C0.5 4.5 3.5 8.5 4 8.5C4.5 8.5 11 0.5 11 0.5" stroke="#0C8FE4"/>
    <path d="M1 4.5C1 4.77614 0.776142 5 0.5 5C0.223858 5 0 4.77614 0 4.5C0 4.22386 0.223858 4 0.5 4C0.776142 4 1 4.22386 1 4.5Z"
          fill="#0C8FE4"/>
    <path d="M11.5 0.5C11.5 0.776142 11.2761 1 11 1C10.7239 1 10.5 0.776142 10.5 0.5C10.5 0.223858 10.7239 0 11 0C11.2761 0 11.5 0.223858 11.5 0.5Z"
          fill="#0C8FE4"/>
    <path d="M14.6387 0.5C14.6387 0.5 8.13869 8.5 7.63869 8.5C7.52816 8.5 7.29546 8.30453 7 8"
          stroke="#0C8FE4"/>
    <path d="M15.1387 0.5C15.1387 0.776142 14.9148 1 14.6387 1C14.3625 1 14.1387 0.776142 14.1387 0.5C14.1387 0.223858 14.3625 0 14.6387 0C14.9148 0 15.1387 0.223858 15.1387 0.5Z"
          fill="#0C8FE4"/>
</svg>
